<?xml version="1.0" encoding="utf-8"?>
<!-- Svg Vector Icons : http://www.onlinewebfonts.com/icon -->
<!DOCTYPE svg PUBLIC "-//W3C//DTD SVG 1.1//EN" "http://www.w3.org/Graphics/SVG/1.1/DTD/svg11.dtd">
<svg version="1.1" xmlns="http://www.w3.org/2000/svg" xmlns:xlink="http://www.w3.org/1999/xlink" x="0px" y="0px" viewBox="0 0 256 256" enable-background="new 0 0 256 256" xml:space="preserve">
<metadata> Svg Vector Icons : http://www.onlinewebfonts.com/icon </metadata>
<g><g><g><path fill="#000000" d="M119.2,10.2c-6.7,0.5-11.8,1.3-18,2.8L97,14l-0.1,9.7l-0.2,9.7l-5.5,2.3c-3,1.2-6,2.6-6.7,2.9c-1.1,0.7-1.9,0-8.3-6.3l-7-7l-5.8,3.8c-13.9,9.2-25.3,20.6-34.5,34.5l-3.8,5.8l7,7c6.3,6.3,6.9,7.2,6.3,8.3c-0.4,0.7-1.7,3.6-2.9,6.7l-2.3,5.5L23.6,97l-9.7,0.1l-0.9,3.8c-4,16-4,37.4-0.1,54l1,4.1l9.7,0.1l9.7,0.2l2.3,5.5c1.2,3,2.5,6,2.9,6.7c0.7,1.1,0,1.9-6.3,8.3l-7,7l3.8,5.8c9.2,14.1,20.4,25.3,34.5,34.5l5.8,3.8l7-7c6.3-6.3,7.2-6.9,8.3-6.3c0.7,0.4,3.7,1.7,6.7,2.9l5.5,2.3l0.2,9.7l0.1,9.7l4.4,1c17.1,3.9,38,3.8,53.8-0.1l3.8-0.9l0.1-9.7l0.2-9.7l5.5-2.3c3-1.2,6-2.6,6.7-2.9c1.1-0.7,1.9,0,8.3,6.3l7,7l5.5-3.6c14.5-9.5,25.5-20.5,35-35l3.6-5.5l-7-7c-6.3-6.3-6.9-7.2-6.3-8.3c0.4-0.7,1.7-3.7,2.9-6.7l2.3-5.5l9.7-0.2l9.7-0.1l0.9-3.8c3.9-15.8,4-36.7,0.1-53.8l-1-4.4l-9.8-0.1l-9.8-0.2l-2.2-5.5c-1.2-3-2.6-6-2.9-6.7c-0.7-1.1,0-1.9,6.3-8.3l7-7l-3.8-5.8c-9.2-14-20.5-25.3-34.5-34.5l-5.8-3.8l-7,7c-6.3,6.3-7.2,6.9-8.3,6.3c-0.7-0.4-3.6-1.7-6.7-2.9l-5.5-2.3l-0.2-9.7L159,14l-4.1-1C144.2,10.5,130,9.4,119.2,10.2z M135,60c16,1.8,30.2,8.6,41.3,19.7c26.7,26.7,26.7,69.9,0,96.6c-26.7,26.7-69.9,26.7-96.6,0c-26.7-26.7-26.7-69.9,0-96.6c10.9-10.9,25.3-17.9,40.5-19.7C126.5,59.4,128.8,59.4,135,60z"/><path fill="#000000" d="M116.5,73.3c-22,4.8-38.7,21.7-43.3,43.8c-1.6,7.4-1.2,18.6,0.7,25.5c11.8,41.6,63.2,55.3,93.5,25c30.3-30.3,16.6-81.6-25-93.5C136,72.1,123.4,71.8,116.5,73.3z M136.8,108.3c4.6,2.1,8.4,5.9,10.8,10.6c1.7,3.5,1.9,4.6,1.9,9.2c0,4.6-0.2,5.6-1.9,9.2c-2.4,4.8-6.2,8.5-11,10.8c-2.9,1.3-4.3,1.6-8.6,1.6c-4.3,0-5.7-0.3-8.6-1.6c-4.8-2.2-8.6-6-11-10.8c-1.8-3.6-1.9-4.6-1.9-9.2c0-4.3,0.3-5.8,1.6-8.6C113.2,108.3,126,103.3,136.8,108.3z"/></g></g></g>
</svg>